# xmcd
#
# Track frame offsets: 
#        150
#        21464
#        38196
#        57170
#        77404
#        107753
#        125723
#        146774
#        160484
#        178506
#        196025
#
# Disc length: 3040 seconds
#
# Revision: 0
# Processed by: cddbd v1.5.2PL0 Copyright (c) Steve Scherf et al.
# Submitted via: ExactAudioCopy v1.3
#
DISCID=940bde0b
DTITLE=Tinsley Ellis - Ice Cream in Hell
DYEAR=2020
DGENRE=Blues
TTITLE0=Last One to Know
TTITLE1=Don't Know Beans
TTITLE2=Ice Cream in Hell
TTITLE3=Foolin' Yourself
TTITLE4=Hole in My Heart
TTITLE5=Sit Tight Mama
TTITLE6=No Stroll in the Park
TTITLE7=Evil Till Sunrise
TTITLE8=Everything and Everyone
TTITLE9=Unlock My Heart
TTITLE10=Your Love's Like Heroin
EXTD=
EXTT0=
EXTT1=
EXTT2=
EXTT3=
EXTT4=
EXTT5=
EXTT6=
EXTT7=
EXTT8=
EXTT9=
EXTT10=
PLAYORDER=
